# xmcd
#
# Track frame offsets:
#	150
#	16927
#	30697
#	52943
#	75774
#	95551
#	127326
#	139177
#	150309
#	168596
#	182058
# Disc length: 2600 seconds
# Revision: 1
# Processed by: cddbd v1.5.2PL0 Copyright (c) Steve Scherf et al.
#
# Submitted via: libkcddb 0.31
#
DISCID=820a260b
DTITLE=Ndidi Onukwulu - No, I Never
DYEAR=2006
DGENRE=Blues
TTITLE0=Horn Blower
TTITLE1=Water
TTITLE2=Wicked Lady
TTITLE3=Hey There
TTITLE4=Hush
TTITLE5=Weight
TTITLE6=Maybe the Last Time, I Don't Know
TTITLE7=Seen You Before
TTITLE8=Old Heart
TTITLE9=Home
TTITLE10=Long Way Home
EXTD=
EXTT0=
EXTT1=
EXTT2=
EXTT3=
EXTT4=
EXTT5=
EXTT6=
EXTT7=
EXTT8=
EXTT9=
EXTT10=
PLAYORDER=
